<mxfile host="Electron" agent="Mozilla/5.0 (Windows NT 10.0; Win64; x64) AppleWebKit/537.36 (KHTML, like Gecko) draw.io/25.0.2 Chrome/128.0.6613.186 Electron/32.2.5 Safari/537.36" version="25.0.2">
  <diagram name="Page-1" id="_co56Dvlr4Tvz_q-Gnpi">
    <mxGraphModel dx="1050" dy="621" grid="1" gridSize="10" guides="1" tooltips="1" connect="1" arrows="1" fold="1" page="1" pageScale="1" pageWidth="827" pageHeight="1169" math="0" shadow="0">
      <root>
        <mxCell id="0" />
        <mxCell id="1" parent="0" />
        <mxCell id="ivO2U4llyC29mjrz-QDK-1" value="End user machine" style="verticalAlign=top;align=center;spacingTop=8;spacingLeft=2;spacingRight=12;shape=cube;size=10;direction=south;fontStyle=0;html=1;whiteSpace=wrap;" vertex="1" parent="1">
          <mxGeometry x="40" y="80" width="180" height="100" as="geometry" />
        </mxCell>
        <mxCell id="ivO2U4llyC29mjrz-QDK-4" value="Web server" style="verticalAlign=top;align=center;spacingTop=8;spacingLeft=2;spacingRight=12;shape=cube;size=10;direction=south;fontStyle=0;html=1;whiteSpace=wrap;" vertex="1" parent="1">
          <mxGeometry x="310" y="80" width="180" height="170" as="geometry" />
        </mxCell>
        <mxCell id="ivO2U4llyC29mjrz-QDK-5" value="Database server" style="verticalAlign=top;align=center;spacingTop=8;spacingLeft=2;spacingRight=12;shape=cube;size=10;direction=south;fontStyle=0;html=1;whiteSpace=wrap;" vertex="1" parent="1">
          <mxGeometry x="580" y="80" width="180" height="100" as="geometry" />
        </mxCell>
        <mxCell id="ivO2U4llyC29mjrz-QDK-6" value="«artifact»&lt;br&gt;Web application" style="html=1;dropTarget=0;whiteSpace=wrap;" vertex="1" parent="1">
          <mxGeometry x="60" y="115" width="130" height="50" as="geometry" />
        </mxCell>
        <mxCell id="ivO2U4llyC29mjrz-QDK-8" value="" style="shape=note2;boundedLbl=1;whiteSpace=wrap;html=1;size=6;verticalAlign=top;align=center;" vertex="1" parent="1">
          <mxGeometry x="170" y="120" width="15" height="20" as="geometry" />
        </mxCell>
        <mxCell id="ivO2U4llyC29mjrz-QDK-13" value="«artifact»&lt;br&gt;Reverse proxy" style="html=1;dropTarget=0;whiteSpace=wrap;" vertex="1" parent="1">
          <mxGeometry x="330" y="115" width="130" height="50" as="geometry" />
        </mxCell>
        <mxCell id="ivO2U4llyC29mjrz-QDK-14" value="" style="shape=note2;boundedLbl=1;whiteSpace=wrap;html=1;size=6;verticalAlign=top;align=center;" vertex="1" parent="1">
          <mxGeometry x="440" y="120" width="15" height="20" as="geometry" />
        </mxCell>
        <mxCell id="ivO2U4llyC29mjrz-QDK-15" value="«artifact»&lt;br&gt;Back-end" style="html=1;dropTarget=0;whiteSpace=wrap;" vertex="1" parent="1">
          <mxGeometry x="330" y="180" width="130" height="50" as="geometry" />
        </mxCell>
        <mxCell id="ivO2U4llyC29mjrz-QDK-16" value="" style="shape=note2;boundedLbl=1;whiteSpace=wrap;html=1;size=6;verticalAlign=top;align=center;" vertex="1" parent="1">
          <mxGeometry x="440" y="185" width="15" height="20" as="geometry" />
        </mxCell>
        <mxCell id="ivO2U4llyC29mjrz-QDK-17" value="«artifact»&lt;br&gt;DBMS" style="html=1;dropTarget=0;whiteSpace=wrap;" vertex="1" parent="1">
          <mxGeometry x="600" y="115" width="130" height="50" as="geometry" />
        </mxCell>
        <mxCell id="ivO2U4llyC29mjrz-QDK-18" value="" style="shape=note2;boundedLbl=1;whiteSpace=wrap;html=1;size=6;verticalAlign=top;align=center;" vertex="1" parent="1">
          <mxGeometry x="710" y="120" width="15" height="20" as="geometry" />
        </mxCell>
        <mxCell id="ivO2U4llyC29mjrz-QDK-31" value="" style="endArrow=none;html=1;rounded=0;exitX=0;exitY=0;exitDx=45;exitDy=0;exitPerimeter=0;entryX=0.264;entryY=1.004;entryDx=0;entryDy=0;entryPerimeter=0;" edge="1" parent="1" source="ivO2U4llyC29mjrz-QDK-1" target="ivO2U4llyC29mjrz-QDK-4">
          <mxGeometry width="50" height="50" relative="1" as="geometry">
            <mxPoint x="170" y="350" as="sourcePoint" />
            <mxPoint x="220" y="300" as="targetPoint" />
          </mxGeometry>
        </mxCell>
        <mxCell id="ivO2U4llyC29mjrz-QDK-32" value="&lt;span style=&quot;font-size: 12px; text-wrap: wrap; background-color: rgb(251, 251, 251);&quot;&gt;«internet»&lt;/span&gt;" style="edgeLabel;html=1;align=center;verticalAlign=middle;resizable=0;points=[];" vertex="1" connectable="0" parent="ivO2U4llyC29mjrz-QDK-31">
          <mxGeometry x="0.048" y="1" relative="1" as="geometry">
            <mxPoint y="16" as="offset" />
          </mxGeometry>
        </mxCell>
        <mxCell id="ivO2U4llyC29mjrz-QDK-33" value="*" style="text;strokeColor=none;align=center;fillColor=none;html=1;verticalAlign=middle;whiteSpace=wrap;rounded=0;" vertex="1" parent="1">
          <mxGeometry x="220" y="100" width="30" height="30" as="geometry" />
        </mxCell>
        <mxCell id="ivO2U4llyC29mjrz-QDK-34" value="1" style="text;strokeColor=none;align=center;fillColor=none;html=1;verticalAlign=middle;whiteSpace=wrap;rounded=0;" vertex="1" parent="1">
          <mxGeometry x="280" y="100" width="30" height="30" as="geometry" />
        </mxCell>
        <mxCell id="ivO2U4llyC29mjrz-QDK-35" value="" style="endArrow=none;html=1;rounded=0;" edge="1" parent="1">
          <mxGeometry width="50" height="50" relative="1" as="geometry">
            <mxPoint x="578" y="130" as="sourcePoint" />
            <mxPoint x="490" y="129" as="targetPoint" />
          </mxGeometry>
        </mxCell>
        <mxCell id="ivO2U4llyC29mjrz-QDK-37" value="&lt;span style=&quot;font-size: 12px; text-wrap: wrap; background-color: rgb(251, 251, 251);&quot;&gt;«LAN»&lt;/span&gt;" style="edgeLabel;html=1;align=center;verticalAlign=middle;resizable=0;points=[];" vertex="1" connectable="0" parent="ivO2U4llyC29mjrz-QDK-35">
          <mxGeometry x="-0.0179" y="-1" relative="1" as="geometry">
            <mxPoint y="11" as="offset" />
          </mxGeometry>
        </mxCell>
      </root>
    </mxGraphModel>
  </diagram>
</mxfile>
